<?xml version="1.0" standalone="no"?><!DOCTYPE svg PUBLIC "-//W3C//DTD SVG 1.1//EN" "http://www.w3.org/Graphics/SVG/1.1/DTD/svg11.dtd"><svg t="1567561920417" class="icon" viewBox="0 0 1024 1024" version="1.1" xmlns="http://www.w3.org/2000/svg" p-id="2382" width="48" height="48" xmlns:xlink="http://www.w3.org/1999/xlink"><defs><style type="text/css"></style></defs><path d="M800 960a32 32 0 0 1-32-32v-384a32 32 0 0 1 64 0v384a32 32 0 0 1-32 32z m-192 0a32 32 0 0 1-32-32v-192a32 32 0 0 1 64 0v192a32 32 0 0 1-32 32z m-192 0a32 32 0 0 1-32-32v-192a32 32 0 0 1 64 0v192a32 32 0 0 1-32 32z m192-192h-192a32 32 0 0 1 0-64h192a32 32 0 0 1 0 64z m192 192h-192a32 32 0 0 1 0-64h192a32 32 0 0 1 0 64z m-576 0a32 32 0 0 1-32-32v-384a32 32 0 0 1 64 0v384a32 32 0 0 1-32 32z m192 0h-192a32 32 0 0 1 0-64h192a32 32 0 0 1 0 64z m-192-384H64a32 32 0 0 1 0-64h160a32 32 0 0 1 0 64zM960 576h-160a32 32 0 0 1 0-64H960a32 32 0 0 1 0 64zM536.768 117.952L86.144 566.976a32.128 32.128 0 0 1-45.12 0 31.616 31.616 0 0 1 0-44.928l450.688-449.024a31.808 31.808 0 0 1 45.056 44.928z m446.144 449.024a32 32 0 0 1-45.056 0L487.232 117.952a31.616 31.616 0 0 1 0-44.928 31.936 31.936 0 0 1 45.056 0l450.688 449.024a31.68 31.68 0 0 1-0.064 44.928z" p-id="2383" fill="#787878"></path></svg>