<?xml version="1.0" standalone="no"?><!DOCTYPE svg PUBLIC "-//W3C//DTD SVG 1.1//EN" "http://www.w3.org/Graphics/SVG/1.1/DTD/svg11.dtd"><svg t="1567474275966" class="icon" viewBox="0 0 1024 1024" version="1.1" xmlns="http://www.w3.org/2000/svg" p-id="13096" xmlns:xlink="http://www.w3.org/1999/xlink" width="48" height="48"><defs><style type="text/css"></style></defs><path d="M407.714928 1013.371792C174.95336 965.207152 0 759.034848 0 512 0 229.230208 229.230208 0 512 0 794.769792 0 1024 229.230208 1024 512 1024 653.010432 966.9956 780.706784 874.774112 873.301744 874.623664 873.458896 874.472992 873.61048 874.324352 873.752768 805.212496 942.973152 716.39088 992.508928 616.995392 1013.224272 583.103696 1020.287104 547.983232 1024 511.995584 1024 476.26208 1024 441.383568 1020.33936 407.714608 1013.372624L407.714928 1013.371792 407.714928 1013.371792ZM867.4676 834.56184C944.846208 749.34056 992 636.17696 992 512 992 246.903328 777.096672 32 512 32 246.903328 32 32 246.903328 32 512 32 636.319552 79.262144 749.600432 156.799088 834.855312 211.38784 683.107104 400.979904 642.831344 511.985152 642.831344 623.192192 642.831344 813.27208 682.26776 867.4676 834.56184L867.4676 834.56184 867.4676 834.56184ZM512.083552 126.313936C644.087312 126.313936 752.193824 233.282512 752.193824 366.424224 752.193824 498.427984 645.225264 606.534512 512.083552 606.534512 378.941824 606.534512 271.973264 499.565952 271.973264 366.424224 271.973264 234.420464 380.079792 126.313936 512.083552 126.313936L512.083552 126.313936 512.083552 126.313936Z" p-id="13097" fill="#8a8a8a"></path></svg>